<svg version="1.1" xmlns="http://www.w3.org/2000/svg" xmlns:xlink="http://www.w3.org/1999/xlink" width="213.18203" height="281.1848" viewBox="0,0,213.18203,281.1848"><defs><linearGradient x1="239.60185" y1="187.07232" x2="239.60185" y2="319.0723" gradientUnits="userSpaceOnUse" id="color-1"><stop offset="0" stop-color="#a2b2bf"/><stop offset="1" stop-color="#babebf"/></linearGradient><linearGradient x1="240.97551" y1="221.14188" x2="240.97551" y2="248.51169" gradientUnits="userSpaceOnUse" id="color-2"><stop offset="0" stop-color="#ff9333"/><stop offset="1" stop-color="#ffb133"/></linearGradient><linearGradient x1="240.97551" y1="201.90171" x2="240.97551" y2="229.27153" gradientUnits="userSpaceOnUse" id="color-3"><stop offset="0" stop-color="#ffb033"/><stop offset="1" stop-color="#ffc633"/></linearGradient></defs><g transform="translate(-134.52362,-38.88751)"><g data-paper-data="{&quot;isPaintingLayer&quot;:true}" fill-rule="nonzero" stroke-linejoin="miter" stroke-miterlimit="10" stroke-dasharray="" stroke-dashoffset="0" style="mix-blend-mode: normal"><path d="M134.52362,306.61252v-267.72501h213.18203v267.72501z" fill="none" stroke="none" stroke-width="0" stroke-linecap="butt"/><path d="M206.35186,319.0723l15.14285,-131.8421l37.78325,-0.15789l13.57389,132z" fill="url(#color-1)" stroke="#000000" stroke-width="2" stroke-linecap="butt"/><g><path d="M207.50846,248.51169l4.33581,-27.36982h57.99149l4.6068,27.36982z" fill="url(#color-2)" stroke="#000000" stroke-width="2" stroke-linecap="butt"/><path d="M252.48917,247.66966l-2.6905,-18.53458" fill="none" stroke="#000000" stroke-width="1" stroke-linecap="round"/><path d="M255.72599,246.17494c0,-0.27614 0.22386,-0.5 0.5,-0.5c0.27614,0 0.5,0.22386 0.5,0.5c0,0.27614 -0.22386,0.5 -0.5,0.5c-0.27614,0 -0.5,-0.22386 -0.5,-0.5z" fill="#000000" stroke="none" stroke-width="0.5" stroke-linecap="butt"/><path d="M254.38073,237.05712c0,-0.27614 0.22386,-0.5 0.5,-0.5c0.27614,0 0.5,0.22386 0.5,0.5c0,0.27614 -0.22386,0.5 -0.5,0.5c-0.27614,0 -0.5,-0.22386 -0.5,-0.5z" fill="#000000" stroke="none" stroke-width="0.5" stroke-linecap="butt"/></g><g><path d="M207.50845,229.27153l4.33581,-27.36982h57.99149l4.6068,27.36982z" fill="url(#color-3)" stroke="#000000" stroke-width="2" stroke-linecap="butt"/><path d="M251.14392,198.19428l4.3347,30.04396" fill="none" stroke="#000000" stroke-width="1" stroke-linecap="round"/><path d="M257.37018,226.59405c0,-0.27614 0.22386,-0.5 0.5,-0.5c0.27614,0 0.5,0.22386 0.5,0.5c0,0.27614 -0.22386,0.5 -0.5,0.5c-0.27614,0 -0.5,-0.22386 -0.5,-0.5z" fill="#000000" stroke="none" stroke-width="0.5" stroke-linecap="butt"/><path d="M256.1744,219.2699c0,-0.27614 0.22386,-0.5 0.5,-0.5c0.27614,0 0.5,0.22386 0.5,0.5c0,0.27614 -0.22386,0.5 -0.5,0.5c-0.27614,0 -0.5,-0.22386 -0.5,-0.5z" fill="#000000" stroke="none" stroke-width="0.5" stroke-linecap="butt"/><path d="M254.67968,210.15208c0,-0.27614 0.22386,-0.5 0.5,-0.5c0.27614,0 0.5,0.22386 0.5,0.5c0,0.27614 -0.22386,0.5 -0.5,0.5c-0.27614,0 -0.5,-0.22386 -0.5,-0.5z" fill="#000000" stroke="none" stroke-width="0.5" stroke-linecap="butt"/></g><path d="" fill="none" stroke="#000000" stroke-width="2" stroke-linecap="round"/><g stroke="#000000" stroke-width="2"><path d="M295.85064,107.78165v-32.24761" fill="none" stroke-linecap="round"/><path d="M291.24384,70.79174c0,-2.6191 2.1232,-4.74229 4.7423,-4.74229c2.6191,0 4.74229,2.1232 4.74229,4.74229c0,2.6191 -2.1232,4.74229 -4.74229,4.74229c-2.6191,0 -4.7423,-2.1232 -4.7423,-4.74229z" fill="#000000" stroke-linecap="butt"/></g><g stroke="#000000" stroke-width="2"><path d="M186.10038,75.53403v32.24761" fill="none" stroke-linecap="round"/><path d="M181.49358,70.79174c0,-2.61909 2.1232,-4.74229 4.74229,-4.74229c2.6191,0 4.7423,2.1232 4.7423,4.74229c0,2.6191 -2.1232,4.74229 -4.7423,4.74229c-2.6191,0 -4.74229,-2.1232 -4.74229,-4.74229z" fill="#000000" stroke-linecap="butt"/></g><path d="M175.36491,148.57227c0,-33.30185 28.7599,-60.29833 64.23702,-60.29833c35.47713,0 64.23702,26.99648 64.23702,60.29833c0,33.30185 -28.75989,60.29834 -64.23702,60.29834c-35.47712,0 -64.23702,-26.99649 -64.23702,-60.29834z" fill="#babebf" stroke="#000000" stroke-width="2" stroke-linecap="butt"/><path d="M174.55633,185.62324c0,-9.65546 0,-53.19547 0,-71.41338c0,-4.96898 4.32043,-8.05414 9.07161,-8.05414c14.37883,0 88.09352,0 113.32928,0c5.32078,0 8.48645,2.38045 8.48645,5.10096c0,8.57058 0,54.2667 0,73.29268c0,5.13125 -2.02661,8.32262 -5.5601,8.32262c-21.56442,0 -99.25236,0 -114.92547,0c-5.35971,0 -10.40177,-3.5372 -10.40177,-7.24873z" fill="#ffc633" stroke="#000000" stroke-width="2" stroke-linecap="butt"/><path d="M179.02763,182.19414c0,-8.69591 0,-47.90897 0,-64.31641c0,-4.47516 4.02524,-7.25373 8.45181,-7.25373c13.39642,0 82.07472,0 105.5863,0c4.95725,0 7.90663,2.14388 7.90663,4.59403c0,7.71885 0,48.87373 0,66.00893c0,4.62132 -1.88816,7.49552 -5.18022,7.49552c-20.09107,0 -92.47114,0 -107.07342,0c-4.99352,0 -9.69109,-3.18567 -9.69109,-6.52835z" fill="#000000" stroke="#000000" stroke-width="2" stroke-linecap="butt"/><path d="M231.52638,153.3741v-8.11969h5.37181v8.11969z" fill="#00ffff" stroke="#000000" stroke-width="0" stroke-linecap="butt"/><path d="M243.46374,153.3741v-8.11969h5.37181v8.11969z" fill="#00ffff" stroke="#000000" stroke-width="0" stroke-linecap="butt"/><path d="M228.93912,158.5204v-1.32472h2.62506v1.32472z" fill="#00ffff" stroke="none" stroke-width="0" stroke-linecap="butt"/><path d="M230.57978,159.18276v-1.1299h18.45745v1.1299z" fill="#00ffff" stroke="none" stroke-width="0" stroke-linecap="butt"/><path d="M248.13486,158.5204v-1.32472h2.62506v1.32472z" fill="#00ffff" stroke="none" stroke-width="0" stroke-linecap="butt"/><path d="M179.55744,128.92352h120.73397" fill="none" stroke-opacity="0.35294" stroke="#000000" stroke-width="3" stroke-linecap="round"/><path d="M179.55744,136.83185h120.73397" fill="none" stroke-opacity="0.35294" stroke="#000000" stroke-width="3" stroke-linecap="round"/><path d="M300.29141,144.74019h-120.73397" fill="none" stroke-opacity="0.35294" stroke="#000000" stroke-width="3" stroke-linecap="round"/><path d="M300.29141,152.64853h-120.73397" fill="none" stroke-opacity="0.35294" stroke="#000000" stroke-width="3" stroke-linecap="round"/><path d="M179.55744,160.55687h120.73397" fill="none" stroke-opacity="0.35294" stroke="#000000" stroke-width="3" stroke-linecap="round"/><path d="M179.55744,168.46521h120.73397" fill="none" stroke-opacity="0.35294" stroke="#000000" stroke-width="3" stroke-linecap="round"/><path d="M179.55744,176.37354h120.73397" fill="none" stroke-opacity="0.35294" stroke="#000000" stroke-width="3" stroke-linecap="round"/><path d="M179.55744,184.28188h120.73397" fill="none" stroke-opacity="0.35294" stroke="#000000" stroke-width="3" stroke-linecap="round"/></g></g></svg>